<svg width="319" height="274" viewBox="0 0 319 274" fill="none" xmlns="http://www.w3.org/2000/svg">
<path d="M0.244141 10C0.244141 4.47715 4.72129 0 10.2441 0H308.756C314.279 0 318.756 4.47715 318.756 10V225.613H0.244141V10Z" fill="#96D3DE"/>
<g clip-path="url(#clip0_162_1958)">
<path d="M254.085 77.2321L216.858 64.315L221.767 50.0975C222.104 49.12 221.582 48.0435 220.607 47.7052L208.198 43.3995C207.223 43.0612 206.149 43.5841 205.812 44.5616L200.904 58.7791L144.176 39.096L149.085 24.8785C149.422 23.901 148.901 22.8245 147.926 22.4862L135.517 18.1805C134.542 17.8422 133.468 18.3651 133.13 19.3426L128.222 33.5602L90.9947 20.6431C87.0726 19.2822 82.8071 21.3595 81.4496 25.2915L30.525 172.799C29.1676 176.731 31.2396 181.007 35.1618 182.368L198.252 238.957C202.175 240.318 206.44 238.241 207.797 234.309L258.722 86.8012C260.08 82.8692 258.008 78.593 254.085 77.2321ZM194.911 219.887L49.5473 169.449L78.6909 85.0319L224.054 135.47L194.911 219.887ZM83.9061 69.9257L94.3364 39.7134L122.7 49.5549L119.019 60.2181C118.681 61.1956 119.203 62.2721 120.178 62.6104L132.587 66.9161C133.562 67.2544 134.636 66.7315 134.973 65.754L138.655 55.0908L195.382 74.7739L191.7 85.4371C191.363 86.4146 191.885 87.4911 192.86 87.8294L205.269 92.1351C206.244 92.4734 207.317 91.9504 207.655 90.973L211.336 80.3098L239.7 90.1513L229.269 120.364L83.9061 69.9257Z" fill="#1A8396" fill-opacity="0.15"/>
</g>
<path d="M0.244141 218.029H318.756V263.01C318.756 268.533 314.279 273.01 308.756 273.01H10.2442C4.7213 273.01 0.244141 268.533 0.244141 263.01V218.029Z" fill="#D9D9D9"/>
<circle cx="159.5" cy="218.977" r="27.4906" fill="#D9D9D9"/>
<path d="M153.621 92.9404H149.061L135.341 72.1804V92.9404H130.781V65.1004H135.341L149.061 85.8204V65.1004H153.621V92.9404ZM180.209 65.1404L171.009 82.8604V92.9404H166.449V82.8604L157.209 65.1404H162.289L168.729 78.7804L175.169 65.1404H180.209ZM85.6028 122.66C87.0961 122.927 88.3628 123.714 89.4028 125.02C90.4428 126.327 90.9628 127.807 90.9628 129.46C90.9628 130.874 90.5894 132.154 89.8428 133.3C89.1228 134.42 88.0694 135.314 86.6828 135.98C85.2961 136.62 83.6828 136.94 81.8428 136.94H70.7228V109.14H81.3228C83.2161 109.14 84.8428 109.46 86.2028 110.1C87.5628 110.74 88.5894 111.607 89.2828 112.7C89.9761 113.767 90.3228 114.967 90.3228 116.3C90.3228 117.9 89.8961 119.234 89.0428 120.3C88.1894 121.367 87.0428 122.154 85.6028 122.66ZM75.2828 120.82H80.9228C82.4161 120.82 83.5761 120.487 84.4028 119.82C85.2561 119.127 85.6828 118.14 85.6828 116.86C85.6828 115.607 85.2561 114.634 84.4028 113.94C83.5761 113.22 82.4161 112.86 80.9228 112.86H75.2828V120.82ZM81.4428 133.22C82.9894 133.22 84.2028 132.847 85.0828 132.1C85.9628 131.354 86.4028 130.314 86.4028 128.98C86.4028 127.62 85.9361 126.54 85.0028 125.74C84.0694 124.94 82.8294 124.54 81.2828 124.54H75.2828V133.22H81.4428ZM108.598 137.22C106.011 137.22 103.625 136.62 101.438 135.42C99.2781 134.194 97.5581 132.5 96.2781 130.34C95.0247 128.154 94.3981 125.7 94.3981 122.98C94.3981 120.26 95.0247 117.82 96.2781 115.66C97.5581 113.5 99.2781 111.82 101.438 110.62C103.625 109.394 106.011 108.78 108.598 108.78C111.211 108.78 113.598 109.394 115.758 110.62C117.945 111.82 119.665 113.5 120.918 115.66C122.171 117.82 122.798 120.26 122.798 122.98C122.798 125.7 122.171 128.154 120.918 130.34C119.665 132.5 117.945 134.194 115.758 135.42C113.598 136.62 111.211 137.22 108.598 137.22ZM108.598 133.26C110.438 133.26 112.078 132.847 113.518 132.02C114.958 131.167 116.078 129.967 116.878 128.42C117.705 126.847 118.118 125.034 118.118 122.98C118.118 120.927 117.705 119.127 116.878 117.58C116.078 116.034 114.958 114.847 113.518 114.02C112.078 113.194 110.438 112.78 108.598 112.78C106.758 112.78 105.118 113.194 103.678 114.02C102.238 114.847 101.105 116.034 100.278 117.58C99.4781 119.127 99.0781 120.927 99.0781 122.98C99.0781 125.034 99.4781 126.847 100.278 128.42C101.105 129.967 102.238 131.167 103.678 132.02C105.118 132.847 106.758 133.26 108.598 133.26ZM139.965 137.22C137.379 137.22 134.992 136.62 132.805 135.42C130.645 134.194 128.925 132.5 127.645 130.34C126.392 128.154 125.765 125.7 125.765 122.98C125.765 120.26 126.392 117.82 127.645 115.66C128.925 113.5 130.645 111.82 132.805 110.62C134.992 109.394 137.379 108.78 139.965 108.78C142.579 108.78 144.965 109.394 147.125 110.62C149.312 111.82 151.032 113.5 152.285 115.66C153.539 117.82 154.165 120.26 154.165 122.98C154.165 125.7 153.539 128.154 152.285 130.34C151.032 132.5 149.312 134.194 147.125 135.42C144.965 136.62 142.579 137.22 139.965 137.22ZM139.965 133.26C141.805 133.26 143.445 132.847 144.885 132.02C146.325 131.167 147.445 129.967 148.245 128.42C149.072 126.847 149.485 125.034 149.485 122.98C149.485 120.927 149.072 119.127 148.245 117.58C147.445 116.034 146.325 114.847 144.885 114.02C143.445 113.194 141.805 112.78 139.965 112.78C138.125 112.78 136.485 113.194 135.045 114.02C133.605 114.847 132.472 116.034 131.645 117.58C130.845 119.127 130.445 120.927 130.445 122.98C130.445 125.034 130.845 126.847 131.645 128.42C132.472 129.967 133.605 131.167 135.045 132.02C136.485 132.847 138.125 133.26 139.965 133.26ZM173.972 136.94L163.212 124.5V136.94H158.652V109.14H163.212V121.82L174.012 109.14H179.732L167.652 123.06L179.932 136.94H173.972ZM188.525 109.14V136.94H183.965V109.14H188.525ZM217.352 136.94H212.792L199.072 116.18V136.94H194.512V109.1H199.072L212.792 129.82V109.1H217.352V136.94ZM243.46 117.14C242.74 115.754 241.74 114.714 240.46 114.02C239.18 113.3 237.7 112.94 236.02 112.94C234.18 112.94 232.54 113.354 231.1 114.18C229.66 115.007 228.527 116.18 227.7 117.7C226.9 119.22 226.5 120.98 226.5 122.98C226.5 124.98 226.9 126.754 227.7 128.3C228.527 129.82 229.66 130.994 231.1 131.82C232.54 132.647 234.18 133.06 236.02 133.06C238.5 133.06 240.513 132.367 242.06 130.98C243.607 129.594 244.553 127.714 244.9 125.34H234.46V121.7H249.78V125.26C249.487 127.42 248.713 129.407 247.46 131.22C246.233 133.034 244.62 134.487 242.62 135.58C240.647 136.647 238.447 137.18 236.02 137.18C233.407 137.18 231.02 136.58 228.86 135.38C226.7 134.154 224.98 132.46 223.7 130.3C222.447 128.14 221.82 125.7 221.82 122.98C221.82 120.26 222.447 117.82 223.7 115.66C224.98 113.5 226.7 111.82 228.86 110.62C231.047 109.394 233.433 108.78 236.02 108.78C238.98 108.78 241.607 109.514 243.9 110.98C246.22 112.42 247.9 114.474 248.94 117.14H243.46Z" fill="#3F3F3F"/>
<defs>
<clipPath id="clip0_162_1958">
<rect width="316.616" height="213.289" fill="white" transform="translate(1.19238 3.79199)"/>
</clipPath>
</defs>
</svg>
