<svg width="746" height="808" viewBox="0 0 746 808" fill="none" xmlns="http://www.w3.org/2000/svg">
<path d="M309.12 483.705C309.12 517.817 308.968 550.111 309.412 582.395C309.447 584.944 313.549 589.476 315.883 589.586C329.973 590.25 344.11 590.236 358.197 589.532C360.466 589.419 364.42 584.754 364.46 582.129C364.918 551.732 364.905 521.319 364.536 490.918C364.507 488.484 360.969 484.094 358.972 484.022C342.923 483.453 326.853 483.704 309.119 483.704L309.12 483.705Z" fill="#3F3F3F"/>
<path d="M381.977 535.674H381.943C381.943 550.482 382.144 565.295 381.852 580.094C381.721 586.717 382.97 590.275 389.542 590.079C402.969 589.679 416.413 589.777 429.845 590.037C435.558 590.149 437.473 587.375 437.441 580.974C437.292 551.361 437.276 521.744 437.485 492.131C437.533 485.362 435.103 483.367 429.653 483.473C416.221 483.734 402.779 483.787 389.349 483.453C383.547 483.308 381.77 486.002 381.892 492.422C382.165 506.833 381.978 521.256 381.978 535.674L381.977 535.674Z" fill="#3F3F3F"/>
<path d="M27.4158 266.934C35.5808 266.934 40.4902 266.936 45.3996 266.934C94.8207 266.911 144.243 266.879 193.664 266.884C197.359 266.884 201.542 265.954 204.609 267.638C207.63 269.296 211.397 273.746 211.375 276.938C211.353 280.073 207.424 284.205 204.379 285.97C201.652 287.55 197.794 286.6 194.435 286.602C139.634 286.635 84.8326 286.844 30.0337 286.446C21.3286 286.383 18.4588 289.076 18.4944 299.519C18.8109 392.735 18.7567 485.953 18.5525 579.17C18.5351 587.275 20.6167 590.116 27.6898 590.094C96.6103 589.883 165.533 589.776 234.452 590.194C243.81 590.251 243.68 584.657 243.673 577.036C243.588 491.23 243.62 405.423 243.62 319.616C243.62 303.235 242.912 286.792 243.953 270.501C244.402 263.475 246.991 255.082 251.13 250.171C286.37 208.356 322.087 167.079 357.955 125.985C362.943 120.27 365.039 114.592 364.955 106.571C364.635 76.1537 364.8 45.7289 364.816 15.3067C364.819 8.99871 364.456 2.13893 371.69 0.621207C378.019 -0.706554 380.51 3.88666 382.267 10.2063C382.865 12.3598 385.733 14.3162 387.905 15.1142C396.861 18.4048 405.979 21.0965 414.981 24.2295C431.056 29.8249 446.112 26.299 460.892 18.1916C474.221 10.8808 478.423 14.1075 478.634 31.4149C478.81 45.8433 478.57 60.2787 478.802 74.7045C478.936 83.0704 476.126 88.1385 469.4 91.9777C449.21 103.502 428.722 107.273 407.001 98.6908C399.476 95.7174 391.732 93.4883 383.26 90.6402C381.196 105.709 380.53 117.513 390.7 128.927C425.956 168.498 460.182 209.302 495.097 249.289C500.871 255.901 503.045 262.783 503.026 272.009C502.827 373.416 503.039 474.825 502.692 576.231C502.655 586.893 504.974 590.268 514.385 590.209C581.959 589.786 649.537 589.833 717.113 590.157C725.391 590.196 728.019 587.49 727.988 577.656C727.698 485.22 727.699 392.782 727.996 300.346C728.03 289.926 725.819 286.298 716.259 286.39C661.462 286.918 606.659 286.655 551.858 286.626C548.167 286.624 544.02 287.494 540.921 285.844C538.165 284.378 534.939 279.984 534.924 276.863C534.91 273.744 538.106 269.483 540.844 267.786C543.519 266.128 547.395 266.91 550.743 266.908C602.518 266.867 654.293 266.875 706.068 266.871C709.328 266.871 712.586 266.871 718.432 266.871C714.568 260.45 712.119 256.141 709.466 252.009C694.609 228.876 679.563 205.903 664.909 182.598C661.153 176.624 657.029 174.323 650.604 174.344C592.443 174.535 534.28 174.343 476.119 174.232C473.437 174.227 470.128 174.995 468.228 173.496C465.56 171.393 462.304 167.48 462.332 164.38C462.361 161.255 465.592 156.738 468.337 155.437C471.843 153.776 476.268 154.579 480.297 154.578C539.469 154.558 598.64 154.714 657.811 154.428C665.344 154.392 670.296 157.258 674.719 164.225C695.444 196.869 716.842 228.945 737.184 261.901C741.523 268.931 744.603 278.768 744.646 287.336C745.153 388.735 744.984 490.139 744.96 591.541C744.956 607.93 743.48 609.693 729.361 609.697C573.028 609.739 416.695 609.739 260.361 609.749C179.337 609.754 98.3121 609.76 17.2875 609.756C2.97209 609.756 1.61149 608.26 1.60761 591.847C1.58306 489.268 1.49455 386.69 1.82146 284.113C1.84213 277.679 3.94441 270.199 7.20702 265.006C28.3804 231.301 50.2922 198.222 71.5916 164.621C75.9977 157.671 80.6578 154.437 88.2639 154.472C149.451 154.753 210.64 154.613 271.828 154.589C277.794 154.587 284.153 154.746 284.424 163.931C284.72 173.953 278 174.347 271.68 174.351C213.181 174.391 154.682 174.311 96.1846 174.591C92.2533 174.61 86.7308 175.816 84.6563 178.912C65.9327 206.858 47.8146 235.349 27.4152 266.936L27.4158 266.934ZM373.284 135.475C337.496 177.313 303.575 217.306 269.234 256.808C263.001 263.977 260.44 271.225 260.472 281.359C260.766 376.104 260.563 470.852 260.767 565.598C260.827 593.523 256.437 589.26 282.21 590.178C290.768 590.483 292.185 586.413 292.108 577.783C291.817 545.036 291.987 512.282 292.146 479.531C292.214 465.628 293.865 463.719 305.451 463.698C350.487 463.618 395.524 463.6 440.56 463.675C452.495 463.695 454.365 465.987 454.418 480.292C454.522 508.364 454.487 536.438 454.497 564.511C454.506 590.893 454.494 590.646 477.032 590.121C483.444 589.972 485.89 587.821 485.877 580.061C485.705 478.296 485.813 376.531 485.53 274.767C485.518 270.367 483.325 264.952 480.62 261.744C456.887 233.61 432.753 205.933 408.853 177.988C397.303 164.482 385.999 150.693 373.284 135.476L373.284 135.475ZM382.591 69.5388C394.599 73.5163 406.155 77.5028 417.79 81.1572C431.005 85.3085 443.806 83.1815 456.045 76.5349C458.174 75.379 461.04 72.6944 461.169 70.5229C461.733 61.0851 461.412 51.5756 461.412 39.218C433.459 55.4497 408.579 42.499 382.591 34.4594V69.5395V69.5388Z" fill="#3F3F3F"/>
<path d="M614.742 539.627C592.552 539.627 570.363 539.696 548.173 539.599C536.201 539.547 534.263 537.198 534.21 523.075C534.137 503.573 534.4 484.066 534.069 464.572C533.882 453.562 537.817 449.377 547.331 449.443C592.717 449.758 638.107 449.704 683.493 449.446C692.239 449.396 696.671 452.709 696.522 463.542C696.239 484.207 696.314 504.884 696.535 525.552C696.641 535.497 692.747 539.677 684.334 539.615C661.138 539.447 637.939 539.557 614.742 539.557V539.628V539.627Z" fill="#3F3F3F"/>
<path d="M131.061 413.238C108.534 413.238 86.0076 413.357 63.482 413.19C51.7889 413.103 50.0207 410.916 49.9658 397.387C49.8844 377.495 50.177 357.597 49.8682 337.712C49.7054 327.224 53.5734 322.915 62.4981 322.956C108.558 323.167 154.62 323.211 200.681 323.111C209.542 323.092 212.415 328.232 212.304 337.731C212.068 358.01 211.942 378.3 212.271 398.573C212.443 409.142 208.586 413.342 199.648 413.238C176.788 412.973 153.924 413.15 131.061 413.15C131.061 413.18 131.061 413.209 131.061 413.238Z" fill="#3F3F3F"/>
<path d="M574.585 404.114C565.597 404.114 556.613 404.088 547.625 404.019C545.685 404.001 544.455 403.919 543.685 403.824C543.527 402.726 543.382 400.751 543.366 397.217C543.331 389.588 543.348 381.96 543.36 374.332C543.385 362.078 543.407 349.819 543.231 337.571C543.177 333.766 543.821 332.542 543.925 332.372C543.925 332.378 543.928 332.378 543.931 332.378C544.016 332.378 544.752 332.095 546.575 332.095C576.774 332.24 606.907 332.309 637.039 332.309C652.894 332.309 668.746 332.29 684.601 332.252C686.13 332.252 686.822 332.46 687.033 332.536C686.986 332.643 687.358 333.647 687.348 336.082C687.27 357.516 687.203 378.944 687.31 400.378C687.323 402.655 686.988 403.64 686.859 403.937C686.85 403.93 686.837 403.93 686.815 403.93C686.616 403.93 685.919 404.088 684.592 404.088C674.718 404.031 664.945 404.019 655.175 404.019L574.585 404.113V404.114Z" fill="#F0821D"/>
<path d="M552.438 341.283C579.907 341.405 608.315 341.467 636.978 341.467C650.709 341.467 664.434 341.453 678.173 341.426C678.11 359.42 678.068 377.134 678.132 394.9C670.427 394.871 662.721 394.86 655.016 394.86L631.936 394.88L614.978 394.898L596.699 394.927C589.436 394.942 582.173 394.957 574.91 394.957C567.444 394.957 559.979 394.942 552.513 394.894C552.491 388.051 552.504 381.206 552.518 374.362C552.538 363.535 552.56 352.378 552.437 341.283M546.559 322.941C537.705 322.941 533.928 327.365 534.076 337.703C534.361 357.548 534.12 377.404 534.209 397.254C534.27 410.913 535.947 413.077 547.551 413.173C556.672 413.249 565.789 413.272 574.91 413.272C588.268 413.272 601.631 413.222 614.989 413.214C628.332 413.207 641.674 413.176 655.016 413.176C664.824 413.176 674.632 413.192 684.44 413.245C684.488 413.245 684.535 413.245 684.583 413.245C692.173 413.245 696.516 409.924 696.469 400.334C696.363 378.928 696.427 357.52 696.506 336.113C696.54 326.726 692.5 323.098 684.639 323.098H684.582C668.711 323.133 652.848 323.152 636.977 323.152C606.883 323.152 576.781 323.085 546.687 322.942C546.644 322.942 546.602 322.942 546.559 322.942V322.941Z" fill="#3F3F3F"/>
<path d="M131.35 449.574C153.874 449.565 176.402 449.851 198.919 449.428C208.274 449.252 212.466 453.073 212.253 464.367C211.871 484.636 212.06 504.925 212.319 525.201C212.444 534.933 209.023 539.616 200.421 539.598C154.031 539.501 107.64 539.546 61.2495 539.617C53.1162 539.629 49.8658 534.916 49.9317 525.779C50.081 505.111 50.1424 484.437 49.8639 463.771C49.7205 453.118 53.9121 449.335 62.7729 449.468C85.6286 449.813 108.491 449.584 131.351 449.574H131.35Z" fill="#3F3F3F"/>
<path d="M373.741 300.575C348.151 300.756 328.441 278.103 328.419 248.483C328.398 220.274 347.994 197.109 372.212 196.712C397.735 196.294 417.778 218.944 417.973 248.425C418.165 277.507 398.749 300.398 373.741 300.575H373.741Z" fill="#3F3F3F"/>
<path d="M388.922 382.48C388.922 371.983 389.14 361.478 388.858 350.992C388.59 341.019 392.563 336.885 400.958 337.027C415.03 337.267 429.108 337.237 443.183 337.106C450.68 337.035 454.425 341.088 454.445 349.725C454.493 371.496 454.547 393.268 454.495 415.039C454.476 423.111 450.77 427.128 443.817 427.15C429.074 427.198 414.33 427.33 399.588 427.286C392.073 427.264 388.785 422.577 388.923 413.97C389.092 403.477 388.963 392.977 388.963 382.48H388.922H388.922Z" fill="#3F3F3F"/>
<path d="M292.083 381.605C292.083 370.687 292.039 359.769 292.098 348.852C292.139 341.294 295.442 337.228 302.031 337.206C317.156 337.153 332.281 337.206 347.407 337.198C354.036 337.194 357.485 341.257 357.53 348.694C357.664 370.919 357.646 393.145 357.513 415.37C357.464 423.562 353.364 427.185 346.494 427.189C332.042 427.195 317.59 427.314 303.138 427.319C295.75 427.322 291.966 423.119 292.029 414.361C292.107 403.443 292.048 392.525 292.048 381.606C292.059 381.606 292.07 381.606 292.082 381.606L292.083 381.605Z" fill="#3F3F3F"/>
<path d="M95.6961 745.75C100.967 752.378 103.604 759.881 103.604 768.264C103.604 775.431 101.743 781.888 98.0265 787.632C94.3077 793.38 88.9331 797.908 81.9046 801.219C74.8742 804.535 66.697 806.189 57.3685 806.189H0.993164V665.239H54.7326C64.3305 665.239 72.5768 666.86 79.4735 670.103C86.3683 673.351 91.5697 677.712 95.0862 683.184C98.6002 688.665 100.359 694.781 100.359 701.543C100.359 709.654 98.1951 716.415 93.8704 721.818C89.5411 727.23 83.7311 731.223 76.4319 733.784C84.0011 735.138 90.4236 739.127 95.6968 745.75H95.6961ZM24.1105 724.457H52.7039C60.2732 724.457 66.1892 722.734 70.4493 719.285C74.7069 715.84 76.8369 710.87 76.8369 704.38C76.8369 698.024 74.7069 693.059 70.4493 689.476C66.1892 685.892 60.2732 684.096 52.7039 684.096H24.1105V724.457V724.457ZM73.7946 781.648C78.255 777.862 80.4865 772.593 80.4865 765.831C80.4865 758.931 78.1194 753.46 73.3896 749.402C68.6552 745.344 62.3684 743.317 54.5297 743.317H24.1105V787.327H55.3405C63.1792 787.327 69.3323 785.434 73.7946 781.647V781.648Z" fill="#3F3F3F"/>
<path d="M156.835 798.382C145.814 792.233 137.093 783.648 130.673 772.621C124.251 761.604 121.041 749.2 121.041 735.41C121.041 721.62 124.251 709.244 130.673 698.296C137.093 687.343 145.814 678.795 156.835 672.642C167.851 666.493 179.918 663.416 193.032 663.416C206.279 663.416 218.413 666.493 229.434 672.642C240.451 678.795 249.136 687.344 255.492 698.296C261.846 709.245 265.024 721.616 265.024 735.41C265.024 749.205 261.846 761.604 255.492 772.621C249.137 783.648 240.451 792.233 229.434 798.382C218.413 804.535 206.28 807.608 193.032 807.608C179.917 807.608 167.851 804.535 156.835 798.382Z" fill="#3F3F3F"/>
<path d="M217.975 781.142C225.275 776.886 230.986 770.797 235.11 762.889C239.235 754.981 241.296 745.824 241.296 735.41C241.296 724.996 239.235 715.877 235.11 708.028C230.986 700.189 225.275 694.174 217.975 689.982C210.676 685.791 202.36 683.69 193.032 683.69C183.703 683.69 175.39 685.791 168.088 689.982C160.788 694.174 155.075 700.189 150.953 708.028C146.827 715.877 144.768 725.001 144.768 735.41C144.768 745.82 146.826 754.981 150.953 762.889C155.075 770.797 160.788 776.886 168.088 781.142C175.39 785.398 183.703 787.53 193.032 787.53C202.36 787.53 210.676 785.398 217.975 781.142Z" fill="#F0821D"/>
<path d="M315.822 798.382C304.801 792.233 296.08 783.648 289.66 772.621C283.238 761.604 280.028 749.2 280.028 735.41C280.028 721.62 283.239 709.244 289.66 698.296C296.08 687.343 304.801 678.795 315.822 672.642C326.839 666.493 338.905 663.416 352.019 663.416C365.266 663.416 377.4 666.493 388.421 672.642C399.438 678.795 408.124 687.344 414.48 698.296C420.833 709.245 424.011 721.616 424.011 735.41C424.011 749.205 420.833 761.604 414.48 772.621C408.124 783.648 399.438 792.233 388.421 798.382C377.4 804.535 365.267 807.608 352.019 807.608C338.905 807.608 326.838 804.535 315.822 798.382ZM376.963 781.142C384.263 776.886 389.973 770.797 394.098 762.889C398.222 754.981 400.283 745.824 400.283 735.41C400.283 724.996 398.222 715.877 394.098 708.028C389.973 700.189 384.263 694.174 376.963 689.982C369.663 685.791 361.347 683.69 352.019 683.69C342.69 683.69 334.378 685.791 327.075 689.982C319.775 694.174 314.062 700.189 309.94 708.028C305.814 715.876 303.755 725.001 303.755 735.41C303.755 745.82 305.813 754.981 309.94 762.889C314.062 770.797 319.775 776.886 327.075 781.142C334.377 785.398 342.69 787.53 352.019 787.53C361.347 787.53 369.663 785.398 376.963 781.142Z" fill="#3F3F3F"/>
<path d="M524.389 806.189L469.839 743.116V806.189H446.722V665.239H469.839V729.528L524.592 665.239H553.593L492.349 735.815L554.606 806.189H524.389H524.389Z" fill="#3F3F3F"/>
<path d="M598.205 665.239V806.189H575.088V665.239H598.205Z" fill="#3F3F3F"/>
<path d="M744.414 806.189H721.296L651.739 700.935V806.189H628.622V665.037H651.739L721.296 770.088V665.037H744.414V806.189Z" fill="#3F3F3F"/>
</svg>