<svg width="319" height="274" viewBox="0 0 319 274" fill="none" xmlns="http://www.w3.org/2000/svg">
<path d="M0.488281 10C0.488281 4.47715 4.96543 0 10.4883 0H309C314.523 0 319 4.47715 319 10V225.613H0.488281V10Z" fill="#3F3F3F"/>
<path d="M0.488281 218.029H319V263.01C319 268.533 314.523 273.01 309 273.01H10.4883C4.96544 273.01 0.488281 268.533 0.488281 263.01V218.029Z" fill="#D9D9D9"/>
<ellipse cx="160.218" cy="218.977" rx="27.0166" ry="27.4906" fill="#D9D9D9"/>
<path d="M122.273 65.1404C125.233 65.1404 127.82 65.7138 130.033 66.8604C132.273 67.9804 133.993 69.6071 135.193 71.7404C136.42 73.8471 137.033 76.3138 137.033 79.1404C137.033 81.9671 136.42 84.4204 135.193 86.5004C133.993 88.5804 132.273 90.1804 130.033 91.3004C127.82 92.3938 125.233 92.9404 122.273 92.9404H113.193V65.1404H122.273ZM122.273 89.2204C125.527 89.2204 128.02 88.3404 129.753 86.5804C131.487 84.8204 132.353 82.3404 132.353 79.1404C132.353 75.9138 131.487 73.3938 129.753 71.5804C128.02 69.7671 125.527 68.8604 122.273 68.8604H117.753V89.2204H122.273ZM146.113 65.1404V92.9404H141.553V65.1404H146.113ZM174.94 92.9404H170.38L156.66 72.1804V92.9404H152.1V65.1004H156.66L170.38 85.8204V65.1004H174.94V92.9404ZM185.488 68.8204V76.9804H195.088V80.7004H185.488V89.2204H196.288V92.9404H180.928V65.1004H196.288V68.8204H185.488ZM28.7496 109.14V136.94H24.1896V109.14H28.7496ZM57.5764 136.94H53.0164L39.2964 116.18V136.94H34.7364V109.1H39.2964L53.0164 129.82V109.1H57.5764V136.94ZM72.6446 109.14C75.6046 109.14 78.1912 109.714 80.4046 110.86C82.6446 111.98 84.3646 113.607 85.5646 115.74C86.7912 117.847 87.4046 120.314 87.4046 123.14C87.4046 125.967 86.7912 128.42 85.5646 130.5C84.3646 132.58 82.6446 134.18 80.4046 135.3C78.1912 136.394 75.6046 136.94 72.6446 136.94H63.5646V109.14H72.6446ZM72.6446 133.22C75.8979 133.22 78.3912 132.34 80.1246 130.58C81.8579 128.82 82.7246 126.34 82.7246 123.14C82.7246 119.914 81.8579 117.394 80.1246 115.58C78.3912 113.767 75.8979 112.86 72.6446 112.86H68.1246V133.22H72.6446ZM101.084 137.22C99.2173 137.22 97.5373 136.9 96.0439 136.26C94.5506 135.594 93.3773 134.66 92.5239 133.46C91.6706 132.26 91.2439 130.86 91.2439 129.26H96.1239C96.2306 130.46 96.6973 131.447 97.5239 132.22C98.3773 132.994 99.5639 133.38 101.084 133.38C102.657 133.38 103.884 133.007 104.764 132.26C105.644 131.487 106.084 130.5 106.084 129.3C106.084 128.367 105.804 127.607 105.244 127.02C104.711 126.434 104.031 125.98 103.204 125.66C102.404 125.34 101.284 124.994 99.8439 124.62C98.0306 124.14 96.5506 123.66 95.4039 123.18C94.2839 122.674 93.3239 121.9 92.5239 120.86C91.7239 119.82 91.3239 118.434 91.3239 116.7C91.3239 115.1 91.7239 113.7 92.5239 112.5C93.3239 111.3 94.4439 110.38 95.8839 109.74C97.3239 109.1 98.9906 108.78 100.884 108.78C103.577 108.78 105.777 109.46 107.484 110.82C109.217 112.154 110.177 113.994 110.364 116.34H105.324C105.244 115.327 104.764 114.46 103.884 113.74C103.004 113.02 101.844 112.66 100.404 112.66C99.0973 112.66 98.0306 112.994 97.2039 113.66C96.3773 114.327 95.9639 115.287 95.9639 116.54C95.9639 117.394 96.2173 118.1 96.7239 118.66C97.2573 119.194 97.9239 119.62 98.7239 119.94C99.5239 120.26 100.617 120.607 102.004 120.98C103.844 121.487 105.337 121.994 106.484 122.5C107.657 123.007 108.644 123.794 109.444 124.86C110.271 125.9 110.684 127.3 110.684 129.06C110.684 130.474 110.297 131.807 109.524 133.06C108.777 134.314 107.671 135.327 106.204 136.1C104.764 136.847 103.057 137.22 101.084 137.22ZM134.025 109.14V112.86H126.625V136.94H122.065V112.86H114.625V109.14H134.025ZM143.203 109.14V136.94H138.643V109.14H143.203ZM153.75 133.26H163.15V136.94H149.19V109.14H153.75V133.26ZM171.523 133.26H180.923V136.94H166.963V109.14H171.523V133.26ZM189.296 109.14V136.94H184.736V109.14H189.296ZM218.123 136.94H213.563L199.843 116.18V136.94H195.283V109.1H199.843L213.563 129.82V109.1H218.123V136.94ZM244.231 117.14C243.511 115.754 242.511 114.714 241.231 114.02C239.951 113.3 238.471 112.94 236.791 112.94C234.951 112.94 233.311 113.354 231.871 114.18C230.431 115.007 229.298 116.18 228.471 117.7C227.671 119.22 227.271 120.98 227.271 122.98C227.271 124.98 227.671 126.754 228.471 128.3C229.298 129.82 230.431 130.994 231.871 131.82C233.311 132.647 234.951 133.06 236.791 133.06C239.271 133.06 241.285 132.367 242.831 130.98C244.378 129.594 245.325 127.714 245.671 125.34H235.231V121.7H250.551V125.26C250.258 127.42 249.485 129.407 248.231 131.22C247.005 133.034 245.391 134.487 243.391 135.58C241.418 136.647 239.218 137.18 236.791 137.18C234.178 137.18 231.791 136.58 229.631 135.38C227.471 134.154 225.751 132.46 224.471 130.3C223.218 128.14 222.591 125.7 222.591 122.98C222.591 120.26 223.218 117.82 224.471 115.66C225.751 113.5 227.471 111.82 229.631 110.62C231.818 109.394 234.205 108.78 236.791 108.78C239.751 108.78 242.378 109.514 244.671 110.98C246.991 112.42 248.671 114.474 249.711 117.14H244.231ZM259.609 112.82V120.98H269.209V124.7H259.609V133.22H270.409V136.94H255.049V109.1H270.409V112.82H259.609ZM290.466 136.94L284.066 125.82H280.586V136.94H276.026V109.14H285.626C287.759 109.14 289.559 109.514 291.026 110.26C292.519 111.007 293.626 112.007 294.346 113.26C295.092 114.514 295.466 115.914 295.466 117.46C295.466 119.274 294.932 120.927 293.866 122.42C292.826 123.887 291.212 124.887 289.026 125.42L295.906 136.94H290.466ZM280.586 122.18H285.626C287.332 122.18 288.612 121.754 289.466 120.9C290.346 120.047 290.786 118.9 290.786 117.46C290.786 116.02 290.359 114.9 289.506 114.1C288.652 113.274 287.359 112.86 285.626 112.86H280.586V122.18Z" fill="white"/>
<g clip-path="url(#clip0_162_1959)">
<g clip-path="url(#clip1_162_1959)">
<path d="M124.064 26.3899L137.852 18.8142C143.929 29.8745 149.723 40.7901 155.964 51.4432C157.104 53.3888 160.103 55.5012 162.187 55.4454C185.521 54.8217 200.687 72.2777 196.215 95.2324C195.457 99.1204 194.488 103.2 192.539 106.568C189.681 111.509 190.658 115.318 193.292 119.974C204.547 139.867 215.411 159.981 226.418 180.015C227.575 182.122 228.733 184.229 230.107 186.729L216.319 194.304C215.172 192.218 214.037 190.15 212.901 188.083C201.466 167.272 189.947 146.507 178.678 125.606C176.685 121.909 174.339 120.302 170.104 119.674C154.827 117.407 141.972 111.289 136.704 95.2517C133.509 85.5271 134.968 76.2119 141.238 68.1948C144.128 64.4988 143.76 61.8907 141.649 58.2246C135.694 47.8815 130.081 37.3416 124.064 26.3899ZM152.748 93.6049C156.861 101.022 165.964 103.673 173.303 99.5901C180.531 95.5689 183.222 86.1192 179.198 78.8899C175.15 71.6193 165.758 68.939 158.502 72.9837C151.123 77.0966 148.603 86.1297 152.748 93.6048L152.748 93.6049Z" fill="white" fill-opacity="0.1"/>
<path d="M276.758 160.89C271.136 150.656 265.503 140.643 260.126 130.494C258.115 126.701 256.265 124.746 251.11 125.121C238.232 126.059 228.209 120.232 222.205 108.761C216.343 97.5622 217.138 86.2862 224.851 76.2094C227.584 72.6384 227.126 70.3499 225.214 66.9178C212.788 44.6034 200.551 22.1834 188.252 -0.202134L184.635 -6.7866L198.319 -14.3048L241.527 64.3396C257.19 62.1897 269.318 66.8061 276.716 80.7138C282.558 91.6953 281.923 102.786 274.44 112.661C271.374 116.707 271.834 119.344 274.024 123.151C279.659 132.949 284.975 142.931 290.649 153.258L276.758 160.89ZM236.376 101.819C240.478 109.21 249.633 111.876 256.927 107.803C264.209 103.737 266.854 94.4248 262.8 87.1246C258.688 79.7206 249.737 77.2186 242.23 81.3745C234.707 85.5385 232.2 94.2948 236.376 101.819L236.376 101.819Z" fill="white" fill-opacity="0.1"/>
<path d="M245.228 -40.1734C247.01 -41.2877 248.25 -42.1291 249.55 -42.8626C252.418 -44.4807 255.317 -46.0445 258.967 -48.0497C264.851 -37.3398 270.672 -27.1922 276.019 -16.801C278.28 -12.4081 280.611 -10.5665 286.065 -10.8178C298.64 -11.3975 308.437 -5.55587 314.361 5.58643C320.294 16.7477 319.522 27.9984 311.97 38.1673C309.418 41.6037 309.306 43.8413 311.319 47.4395C323.569 69.3313 335.564 91.366 347.644 113.353L351.301 120.009L337.424 127.633C336.334 125.649 335.205 123.594 334.076 121.539C321.889 99.3576 309.636 77.2121 297.584 54.9575C295.699 51.4762 293.971 49.9883 289.521 50.3036C276.392 51.2336 266.202 45.7201 259.981 33.9333C253.893 22.3994 255.021 11.1177 262.851 0.852455C265.196 -2.22145 265.132 -4.21915 263.369 -7.31146C257.239 -18.062 251.384 -28.9689 245.228 -40.1732L245.228 -40.1734ZM300.092 12.3673C295.931 4.94834 286.82 2.35812 279.49 6.50959C272.244 10.6128 269.627 20.0192 273.719 27.2467C277.805 34.4614 287.246 37.0943 294.45 33.0279C301.77 28.8957 304.256 19.7922 300.092 12.3673Z" fill="white" fill-opacity="0.1"/>
</g>
</g>
<defs>
<clipPath id="clip0_162_1959">
<rect width="318.512" height="217.081" fill="white" transform="translate(0.488281)"/>
</clipPath>
<clipPath id="clip1_162_1959">
<rect width="199.537" height="191.88" fill="white" transform="translate(104 37.0815) rotate(-28.785)"/>
</clipPath>
</defs>
</svg>
