<svg width="327" height="274" viewBox="0 0 327 274" fill="none" xmlns="http://www.w3.org/2000/svg">
<g filter="url(#filter0_d_162_1957)">
<path d="M4 10C4 4.47715 8.47715 0 14 0H312.512C318.035 0 322.512 4.47715 322.512 10V225.613H4V10Z" fill="#F89B30"/>
</g>
<g clip-path="url(#clip0_162_1957)" filter="url(#filter1_d_162_1957)">
<path d="M156.952 70.7025L186.595 2.52179C187.229 1.06675 187.439 -0.536916 187.201 -2.10538C186.964 -3.67384 186.288 -5.14361 185.252 -6.34622C184.217 -7.54882 182.862 -8.43558 181.345 -8.90483C179.827 -9.37408 178.208 -9.40684 176.673 -8.99935L-10.978 41.9255C-13.1418 42.5127 -14.9836 43.9341 -16.0983 45.877C-17.2129 47.8199 -17.509 50.1251 -16.9215 52.2855L29.5979 223.349C30.1854 225.51 31.6084 227.348 33.5539 228.461C35.4994 229.573 37.808 229.868 39.9718 229.281C42.1356 228.694 43.9774 227.273 45.0921 225.33C46.2067 223.387 46.5028 221.082 45.9153 218.921L34.8393 178.192L214.331 129.481C215.862 129.056 217.242 128.209 218.313 127.038C219.385 125.866 220.104 124.416 220.388 122.856C220.672 121.295 220.51 119.686 219.921 118.213C219.331 116.74 218.338 115.463 217.054 114.528L156.952 70.7025ZM30.4088 161.9L1.61114 56.0032L164.174 11.8868L138.842 70.1503C138.036 71.9029 137.871 73.8824 138.377 75.7433C138.883 77.6043 140.028 79.2286 141.611 80.3326L192.971 117.783L30.4088 161.9Z" fill="#B76200" fill-opacity="0.15"/>
</g>
<path d="M4 218.029H322.512V263.01C322.512 268.533 318.035 273.01 312.512 273.01H14C8.47716 273.01 4 268.533 4 263.01V218.029Z" fill="#D9D9D9"/>
<circle cx="163.256" cy="218.977" r="27.4906" fill="#D9D9D9"/>
<path d="M87.3714 87.2604H75.7314L73.7314 92.9404H68.9714L78.9314 65.1004H84.2114L94.1714 92.9404H89.3714L87.3714 87.2604ZM86.0914 83.5404L81.5714 70.6204L77.0114 83.5404H86.0914ZM113.822 92.9404L103.062 80.5004V92.9404H98.5021V65.1404H103.062V77.8204L113.862 65.1404H119.582L107.502 79.0604L119.782 92.9404H113.822ZM141.775 65.1404V68.8604H134.375V92.9404H129.815V68.8604H122.375V65.1404H141.775ZM150.913 65.1404V82.8604C150.913 84.9671 151.459 86.5538 152.553 87.6204C153.673 88.6871 155.219 89.2204 157.193 89.2204C159.193 89.2204 160.739 88.6871 161.833 87.6204C162.953 86.5538 163.513 84.9671 163.513 82.8604V65.1404H168.073V82.7804C168.073 85.0471 167.579 86.9671 166.593 88.5404C165.606 90.1138 164.286 91.2871 162.633 92.0604C160.979 92.8338 159.153 93.2204 157.153 93.2204C155.153 93.2204 153.326 92.8338 151.673 92.0604C150.046 91.2871 148.753 90.1138 147.793 88.5404C146.833 86.9671 146.353 85.0471 146.353 82.7804V65.1404H150.913ZM178.57 68.8204V76.9804H188.17V80.7004H178.57V89.2204H189.37V92.9404H174.01V65.1004H189.37V68.8204H178.57ZM199.546 89.2604H208.946V92.9404H194.986V65.1404H199.546V89.2604ZM217.32 89.2604H226.72V92.9404H212.76V65.1404H217.32V89.2604ZM235.093 68.8204V76.9804H244.693V80.7004H235.093V89.2204H245.893V92.9404H230.533V65.1004H245.893V68.8204H235.093ZM66.2336 122.66C67.727 122.927 68.9936 123.714 70.0336 125.02C71.0736 126.327 71.5936 127.807 71.5936 129.46C71.5936 130.874 71.2203 132.154 70.4736 133.3C69.7536 134.42 68.7003 135.314 67.3136 135.98C65.927 136.62 64.3136 136.94 62.4736 136.94H51.3536V109.14H61.9536C63.847 109.14 65.4736 109.46 66.8336 110.1C68.1936 110.74 69.2203 111.607 69.9136 112.7C70.607 113.767 70.9536 114.967 70.9536 116.3C70.9536 117.9 70.527 119.234 69.6736 120.3C68.8203 121.367 67.6736 122.154 66.2336 122.66ZM55.9136 120.82H61.5536C63.047 120.82 64.207 120.487 65.0336 119.82C65.887 119.127 66.3136 118.14 66.3136 116.86C66.3136 115.607 65.887 114.634 65.0336 113.94C64.207 113.22 63.047 112.86 61.5536 112.86H55.9136V120.82ZM62.0736 133.22C63.6203 133.22 64.8336 132.847 65.7136 132.1C66.5936 131.354 67.0336 130.314 67.0336 128.98C67.0336 127.62 66.567 126.54 65.6336 125.74C64.7003 124.94 63.4603 124.54 61.9136 124.54H55.9136V133.22H62.0736ZM89.2289 137.22C86.6423 137.22 84.2556 136.62 82.0689 135.42C79.9089 134.194 78.1889 132.5 76.9089 130.34C75.6556 128.154 75.0289 125.7 75.0289 122.98C75.0289 120.26 75.6556 117.82 76.9089 115.66C78.1889 113.5 79.9089 111.82 82.0689 110.62C84.2556 109.394 86.6423 108.78 89.2289 108.78C91.8423 108.78 94.2289 109.394 96.3889 110.62C98.5756 111.82 100.296 113.5 101.549 115.66C102.802 117.82 103.429 120.26 103.429 122.98C103.429 125.7 102.802 128.154 101.549 130.34C100.296 132.5 98.5756 134.194 96.3889 135.42C94.2289 136.62 91.8423 137.22 89.2289 137.22ZM89.2289 133.26C91.0689 133.26 92.7089 132.847 94.1489 132.02C95.5889 131.167 96.7089 129.967 97.5089 128.42C98.3356 126.847 98.7489 125.034 98.7489 122.98C98.7489 120.927 98.3356 119.127 97.5089 117.58C96.7089 116.034 95.5889 114.847 94.1489 114.02C92.7089 113.194 91.0689 112.78 89.2289 112.78C87.3889 112.78 85.7489 113.194 84.3089 114.02C82.8689 114.847 81.7356 116.034 80.9089 117.58C80.1089 119.127 79.7089 120.927 79.7089 122.98C79.7089 125.034 80.1089 126.847 80.9089 128.42C81.7356 129.967 82.8689 131.167 84.3089 132.02C85.7489 132.847 87.3889 133.26 89.2289 133.26ZM120.596 137.22C118.009 137.22 115.623 136.62 113.436 135.42C111.276 134.194 109.556 132.5 108.276 130.34C107.023 128.154 106.396 125.7 106.396 122.98C106.396 120.26 107.023 117.82 108.276 115.66C109.556 113.5 111.276 111.82 113.436 110.62C115.623 109.394 118.009 108.78 120.596 108.78C123.209 108.78 125.596 109.394 127.756 110.62C129.943 111.82 131.663 113.5 132.916 115.66C134.169 117.82 134.796 120.26 134.796 122.98C134.796 125.7 134.169 128.154 132.916 130.34C131.663 132.5 129.943 134.194 127.756 135.42C125.596 136.62 123.209 137.22 120.596 137.22ZM120.596 133.26C122.436 133.26 124.076 132.847 125.516 132.02C126.956 131.167 128.076 129.967 128.876 128.42C129.703 126.847 130.116 125.034 130.116 122.98C130.116 120.927 129.703 119.127 128.876 117.58C128.076 116.034 126.956 114.847 125.516 114.02C124.076 113.194 122.436 112.78 120.596 112.78C118.756 112.78 117.116 113.194 115.676 114.02C114.236 114.847 113.103 116.034 112.276 117.58C111.476 119.127 111.076 120.927 111.076 122.98C111.076 125.034 111.476 126.847 112.276 128.42C113.103 129.967 114.236 131.167 115.676 132.02C117.116 132.847 118.756 133.26 120.596 133.26ZM154.603 136.94L143.843 124.5V136.94H139.283V109.14H143.843V121.82L154.643 109.14H160.363L148.283 123.06L160.563 136.94H154.603ZM169.156 109.14V136.94H164.596V109.14H169.156ZM197.983 136.94H193.423L179.703 116.18V136.94H175.143V109.1H179.703L193.423 129.82V109.1H197.983V136.94ZM224.091 117.14C223.371 115.754 222.371 114.714 221.091 114.02C219.811 113.3 218.331 112.94 216.651 112.94C214.811 112.94 213.171 113.354 211.731 114.18C210.291 115.007 209.157 116.18 208.331 117.7C207.531 119.22 207.131 120.98 207.131 122.98C207.131 124.98 207.531 126.754 208.331 128.3C209.157 129.82 210.291 130.994 211.731 131.82C213.171 132.647 214.811 133.06 216.651 133.06C219.131 133.06 221.144 132.367 222.691 130.98C224.237 129.594 225.184 127.714 225.531 125.34H215.091V121.7H230.411V125.26C230.117 127.42 229.344 129.407 228.091 131.22C226.864 133.034 225.251 134.487 223.251 135.58C221.277 136.647 219.077 137.18 216.651 137.18C214.037 137.18 211.651 136.58 209.491 135.38C207.331 134.154 205.611 132.46 204.331 130.3C203.077 128.14 202.451 125.7 202.451 122.98C202.451 120.26 203.077 117.82 204.331 115.66C205.611 113.5 207.331 111.82 209.491 110.62C211.677 109.394 214.064 108.78 216.651 108.78C219.611 108.78 222.237 109.514 224.531 110.98C226.851 112.42 228.531 114.474 229.571 117.14H224.091ZM239.468 112.82V120.98H249.068V124.7H239.468V133.22H250.268V136.94H234.908V109.1H250.268V112.82H239.468ZM270.325 136.94L263.925 125.82H260.445V136.94H255.885V109.14H265.485C267.618 109.14 269.418 109.514 270.885 110.26C272.378 111.007 273.485 112.007 274.205 113.26C274.952 114.514 275.325 115.914 275.325 117.46C275.325 119.274 274.792 120.927 273.725 122.42C272.685 123.887 271.072 124.887 268.885 125.42L275.765 136.94H270.325ZM260.445 122.18H265.485C267.192 122.18 268.472 121.754 269.325 120.9C270.205 120.047 270.645 118.9 270.645 117.46C270.645 116.02 270.218 114.9 269.365 114.1C268.512 113.274 267.218 112.86 265.485 112.86H260.445V122.18Z" fill="#3F3F3F"/>
<defs>
<filter id="filter0_d_162_1957" x="0" y="0" width="326.512" height="233.613" filterUnits="userSpaceOnUse" color-interpolation-filters="sRGB">
<feFlood flood-opacity="0" result="BackgroundImageFix"/>
<feColorMatrix in="SourceAlpha" type="matrix" values="0 0 0 0 0 0 0 0 0 0 0 0 0 0 0 0 0 0 127 0" result="hardAlpha"/>
<feOffset dy="4"/>
<feGaussianBlur stdDeviation="2"/>
<feComposite in2="hardAlpha" operator="out"/>
<feColorMatrix type="matrix" values="0 0 0 0 0 0 0 0 0 0 0 0 0 0 0 0 0 0 0.25 0"/>
<feBlend mode="normal" in2="BackgroundImageFix" result="effect1_dropShadow_162_1957"/>
<feBlend mode="normal" in="SourceGraphic" in2="effect1_dropShadow_162_1957" result="shape"/>
</filter>
<filter id="filter1_d_162_1957" x="0" y="1.896" width="326.512" height="226.029" filterUnits="userSpaceOnUse" color-interpolation-filters="sRGB">
<feFlood flood-opacity="0" result="BackgroundImageFix"/>
<feColorMatrix in="SourceAlpha" type="matrix" values="0 0 0 0 0 0 0 0 0 0 0 0 0 0 0 0 0 0 127 0" result="hardAlpha"/>
<feOffset dy="4"/>
<feGaussianBlur stdDeviation="2"/>
<feComposite in2="hardAlpha" operator="out"/>
<feColorMatrix type="matrix" values="0 0 0 0 0 0 0 0 0 0 0 0 0 0 0 0 0 0 0.25 0"/>
<feBlend mode="normal" in2="BackgroundImageFix" result="effect1_dropShadow_162_1957"/>
<feBlend mode="normal" in="SourceGraphic" in2="effect1_dropShadow_162_1957" result="shape"/>
</filter>
<clipPath id="clip0_162_1957">
<rect width="318.512" height="218.029" fill="white" transform="translate(4 1.896)"/>
</clipPath>
</defs>
</svg>
